<svg width="82" height="61" viewBox="0 0 82 61" fill="none" xmlns="http://www.w3.org/2000/svg">
<g clip-path="url(#clip0_3_74)">
<path d="M15.1236 26.7478C17.3861 25.3556 18.8695 23.5339 18.7296 21.6382C18.5099 18.7451 15.2934 16.5581 9.95426 16.9531C9.89433 16.9531 9.83939 16.9629 9.77945 16.9679C12.3566 10.5006 16.9216 0.612008 20.5576 0.997084C22.4655 1.20937 23.7491 4.32454 24.4384 6.88184C24.2735 7.08425 24.1387 7.46439 23.9439 8.18023C23.5144 9.7551 23.6043 9.89827 23.3446 10.6931C23.1897 11.167 22.8851 12.105 22.1509 13.0579C21.7213 13.6157 21.4766 13.7441 21.102 14.3908C20.7624 14.9734 20.5526 15.3387 20.5027 15.8669C20.4577 16.3211 20.5626 16.6124 20.3528 17.0469C20.258 17.2394 20.1481 17.3727 20.203 17.4912C20.3029 17.7035 20.8473 17.6492 20.9522 17.6393C22.026 17.5159 22.7552 16.5087 22.8951 16.3113C23.4694 15.4868 23.5793 14.6673 23.6442 14.687C23.6992 14.7018 23.4994 15.3239 23.4944 16.1632C23.4944 16.5927 23.4894 17.2493 23.7941 17.9355C23.874 18.1083 24.5133 19.5499 25.5871 19.5597C26.2214 19.5696 26.6909 19.071 26.9356 18.8192C27.5749 18.1478 27.7098 17.3233 27.8346 16.6025C27.9795 15.7238 27.9395 14.9783 27.9845 14.9783C28.0394 14.9783 27.8746 16.0249 28.434 16.8988C28.8885 17.6097 29.7725 18.1428 30.0772 17.9355C30.6116 17.5702 29.368 14.9586 29.0283 14.2378C28.3141 12.732 27.3851 11.4287 27.3851 11.4287C26.4711 10.1106 26.0466 9.81928 25.9617 8.98988C25.8868 8.21973 26.1815 7.74085 25.8119 7.21754C25.722 7.09412 25.6021 6.97564 25.4672 6.88677C24.793 4.25542 23.3346 0.310859 20.6725 0.0195834C17.2513 -0.360556 13.3256 5.22798 8.66068 17.0913C2.14783 17.975 0.00517865 21.5246 0.00517865 21.5246C-0.0897172 22.0775 0.989099 23.2723 2.14283 23.1883C2.52741 23.1587 4.19059 22.2207 4.41534 21.959C4.49026 21.8702 4.28049 21.6431 4.3554 21.5542C5.21446 20.5372 6.44311 19.3326 9.34493 19.1203C12.3267 18.8982 14.0048 20.3249 14.1447 22.1911C14.2895 24.1115 12.9909 25.5136 10.7484 26.4417L9.84438 26.5108C10.184 24.1214 10.4987 22.0282 10.7484 21.0062C9.5497 20.4138 6.95755 20.0337 6.23334 21.7221C5.65897 23.2624 4.58515 30.1691 3.92588 35.6292C2.7222 35.3627 1.87313 35.0763 1.70831 35.0566C0.919176 36.2859 0.744367 37.5744 1.97302 38.1915C2.28767 38.3297 2.87203 38.4531 3.59624 38.5321C3.57626 38.6407 3.55628 38.7543 3.56627 38.8629C3.80101 39.0357 5.78883 39.87 7.13236 39.8256C7.8216 39.8256 8.20118 39.7466 8.35102 38.8086C8.35102 38.7543 8.366 38.6704 8.366 38.6161L9.10519 38.5617C14.5242 38.1619 20.208 35.4861 19.8834 31.1811C19.7086 28.8559 17.7807 27.3649 15.1186 26.7478M8.66567 35.9798C8.90541 34.0593 9.1851 31.5366 9.51974 29.0632C12.1918 28.7028 14.4343 29.6507 14.5742 31.5168C14.8089 34.6024 11.4526 35.6934 8.66567 35.9798Z" fill="white"/>
<path d="M27.8444 31.5219C27.5548 32.5587 27.0054 33.6744 26.1064 33.7435C25.7767 33.7682 25.4421 33.3584 25.4321 32.4896C25.4021 30.6679 26.401 25.9976 26.8755 23.8945C27.2401 22.5319 23.709 22.0629 22.8899 22.1221C22.6152 22.1419 22.2656 22.2209 22.1757 22.527C21.4714 24.5116 20.1179 30.6481 20.2977 32.9734C20.4975 35.6245 22.2606 36.7451 24.8877 36.5526C26.5059 36.4341 27.9793 35.7035 29.0331 34.7655C30.3867 36.291 32.7041 37.0068 34.8717 36.8488C38.1531 36.6069 40.0261 34.7704 40.7952 32.9388C41.949 34.2965 43.8719 34.9333 46.489 34.7408C51.7182 34.3557 52.872 26.6789 52.6972 24.4079C52.5074 21.8901 50.0201 19.5451 47.6078 19.7228C46.1593 19.8314 45.4152 20.9175 44.5811 22.285C44.8907 20.5769 46.0395 16.4398 46.4141 15.2154C46.3591 14.4601 43.8768 13.6899 42.5533 14.0306C41.8641 14.2133 39.2769 24.3092 39.5316 29.3102C39.2919 29.2855 39.0422 29.2757 38.7824 29.2954C38.3429 29.33 38.0582 29.5669 38.0582 29.5669C37.8984 31.127 36.5599 34.1385 33.9877 34.331C32.9738 34.4051 32.3295 33.8818 32.2296 32.5587C32.0898 30.6925 32.5593 29.2954 32.5842 29.2411C32.6492 29.3448 33.4483 30.4556 35.0316 30.3371C36.8096 30.2038 38.7125 27.3453 38.4528 23.8846C38.228 20.9077 35.2114 19.9598 33.6231 20.0783C29.6325 20.3745 27.6347 26.6591 27.8394 31.5219M44.2514 27.6959L44.7609 27.9032C44.7859 27.9032 45.0306 27.8292 45.0306 27.7995C45.0306 26.358 46.1244 22.2505 47.4929 22.1517C48.0672 22.1073 48.0672 22.8429 48.0922 23.5489C48.0872 23.8204 47.7526 31.8132 45.2653 32.0008C44.5811 32.0502 44.0566 31.2998 44.0417 30.3766C44.0217 28.6931 44.2514 27.6959 44.2514 27.6959ZM34.0626 22.8725C34.1975 22.5072 34.3024 22.4183 34.4122 22.4134C34.5471 22.4035 34.7219 22.4973 34.7718 23.5045C34.8817 25.3459 34.3623 27.8884 33.4583 27.9526C32.9638 27.9871 32.814 27.4293 32.814 27.4293C32.9838 26.0272 33.5582 24.1907 34.0676 22.8775" fill="white"/>
<path d="M55.6739 39.7221C56.463 39.6628 57.1772 39.3173 57.7017 38.8631C57.8965 39.3173 58.2411 39.5838 58.8454 39.5394C59.5397 39.49 59.9342 39.2136 59.9342 39.2136C59.9043 38.1176 60.4636 36.2317 60.9581 35.1357L61.1079 35.1259C61.003 35.7281 60.8282 36.8982 60.8432 37.4116C60.8582 38.3595 61.4176 39.3617 63.1207 39.2383C64.6091 39.1297 65.4232 37.7671 65.3782 37.1845C65.3133 36.3502 64.3144 36.518 64.3144 36.518C64.2295 36.8389 63.9099 37.9053 63.5003 37.9349C63.1457 37.9596 62.9709 37.6733 62.9309 37.0809C62.826 35.6788 63.5552 33.5461 63.6551 32.1292C63.6801 31.6947 62.2517 31.3491 61.6773 31.3936C61.3227 31.4183 61.1829 31.5911 61.1379 31.7046C60.4686 33.0178 60.0291 34.4446 59.5646 35.7825H59.5097C59.5047 34.6322 59.7245 33.5214 59.9542 32.376C60.0141 32.0749 59.1751 31.8626 58.6806 31.9021C57.9015 31.9613 57.4469 34.1039 57.4469 36.4884C57.3521 36.4884 57.2821 36.4934 57.2821 36.4934C57.2472 36.9574 56.9775 38.2657 56.2782 38.3151C56.1134 38.3249 55.9486 38.1225 55.9436 37.6881C55.9286 36.7797 56.4281 34.4495 56.6628 33.4029C56.8476 32.7265 55.0845 32.4896 54.675 32.5192C54.5401 32.5291 54.3653 32.5685 54.3204 32.7216C53.9708 33.709 53.2965 36.7698 53.3814 37.93C53.4813 39.2531 54.3603 39.8109 55.6689 39.7122" fill="white"/>
<path d="M55.6339 31.8033C57.1872 31.6898 57.6367 30.6925 57.5968 30.1791C57.5618 29.7447 57.1822 29.6015 56.8027 29.4929C56.9425 28.9646 56.5529 28.9005 55.9236 28.9498C54.695 29.0387 54.4702 30.4111 54.5052 30.8703C54.5601 31.5861 55.2244 31.833 55.6339 31.8033Z" fill="white"/>
<path d="M35.2663 47.9222C37.5288 46.53 39.0122 44.7083 38.8723 42.8126C38.6526 39.9196 35.4361 37.7375 30.097 38.1275C22.5702 38.6853 20.1479 42.699 20.1479 42.699C20.053 43.2519 21.1318 44.4516 22.2855 44.3627C22.6701 44.3331 24.3333 43.3951 24.558 43.1335C24.633 43.0446 24.4232 42.8175 24.4981 42.7286C25.3572 41.7116 26.5858 40.507 29.4876 40.2948C32.4694 40.0726 34.1475 41.4994 34.2874 43.3655C34.4322 45.2859 33.1336 46.688 30.8911 47.6161L29.9871 47.6803C30.3267 45.2909 30.6364 43.1976 30.8911 42.1757C29.6924 41.5833 27.1003 41.2031 26.3761 42.8916C25.8017 44.4319 24.7279 51.3385 24.0686 56.7987C22.8649 56.5321 22.0158 56.2409 21.851 56.226C21.0619 57.4553 20.8871 58.7438 22.1157 59.361C22.4304 59.4992 23.0147 59.6226 23.7389 59.7016C23.719 59.8102 23.699 59.9238 23.709 60.0324C23.9437 60.2052 25.9315 61.0395 27.2751 60.9951C27.9643 60.9951 28.3439 60.9161 28.4937 59.9781C28.4937 59.9238 28.5087 59.8398 28.5087 59.7855L29.2479 59.7312C34.667 59.3313 40.3507 56.6556 40.0261 52.3506C39.8513 50.0253 37.9234 48.5344 35.2613 47.9173M28.8084 57.1591C29.0481 55.2387 29.3278 52.7159 29.6624 50.2426C32.3345 49.8822 34.5771 50.83 34.7169 52.6962C34.9516 55.7817 31.5953 56.8728 28.8084 57.1591Z" fill="white"/>
<path d="M43.8319 36.3551C43.6121 36.3699 43.2875 36.4242 43.2226 36.6464C42.0938 41.3809 41.0599 50.2426 40.99 54.4636C40.975 55.3374 40.8701 56.542 41.1199 56.9024C41.3746 57.3467 45.2753 58.339 45.6749 57.8453C45.6749 57.1097 45.6998 56.3741 45.7298 55.6386C45.8297 49.6995 46.6538 43.4395 47.7276 37.619C47.8275 37.1203 44.8458 36.2811 43.8369 36.3551" fill="white"/>
<path d="M54.5651 41.8746C53.6611 41.9437 53.0867 42.3386 53.0867 42.3386C52.9319 42.077 52.5024 41.8647 51.938 41.7166C49.211 42.4324 46.8486 47.1817 46.8985 50.7659C46.9884 53.807 48.9463 57.4701 53.4913 57.1344C59.0452 56.7247 60.1939 50.055 60.154 47.0138C60.0491 44.1653 59.1351 41.5389 54.5651 41.8795M55.7938 46.4609C55.7588 47.8531 55.0895 54.2908 52.877 54.4537C51.8631 54.5278 51.3736 53.0961 51.4236 51.2447C51.4136 50.3759 51.5834 49.6847 51.5834 49.6847C51.7033 49.813 52.2626 49.9315 52.2826 49.8525C52.4824 48.4752 53.5662 44.2344 54.9597 44.1307C55.9186 44.0616 55.7938 45.7253 55.7988 46.4609" fill="white"/>
<path d="M79.4528 48.959C79.3829 49.8871 78.8385 52.5135 77.445 52.6172C77.1154 52.6419 76.7807 52.2321 76.7708 51.3632C76.7408 49.5415 77.7397 44.8712 78.2142 42.7681C78.5788 41.4056 75.0476 40.9366 74.2285 40.9958C73.9538 41.0155 73.6042 41.0945 73.5143 41.4006C72.9799 42.9014 72.0809 46.7818 71.7463 49.5909C71.5215 49.5711 71.2918 49.5613 71.052 49.581C70.6125 49.6156 70.3278 49.8526 70.3278 49.8526C70.168 51.4126 68.8295 54.4241 66.2573 54.6166C65.2434 54.6907 64.5991 54.1674 64.4992 52.8443C64.3594 50.9782 64.8289 49.581 64.8538 49.5267C64.9138 49.6304 65.7179 50.7412 67.3011 50.6227C69.0792 50.4894 70.9821 47.631 70.7224 44.1702C70.4976 41.1933 67.4809 40.2454 65.8927 40.3639C61.7622 40.67 59.7644 47.3989 60.139 52.321C60.3937 55.7027 63.9348 57.3714 67.1363 57.1344C69.8084 56.937 71.5465 55.683 72.5154 54.2365C73.3145 55.1696 74.6031 55.5497 76.2263 55.4312C79.4828 55.1893 82.1399 52.4938 81.995 50.5733C81.8552 48.7072 79.4528 48.9639 79.4528 48.9639M66.3272 43.1532C66.4621 42.7879 66.5669 42.699 66.6768 42.6941C66.8117 42.6842 66.9865 42.778 67.0314 43.7851C67.1413 45.6266 66.6219 48.1691 65.7179 48.2333C65.2234 48.2678 65.0736 47.7099 65.0736 47.7099C65.2434 46.3079 65.8178 44.4714 66.3272 43.1581" fill="white"/>
<path d="M76.1564 39.5444C79.278 39.3123 80.172 37.3178 80.0921 36.291C80.0272 35.427 79.263 35.1308 78.5038 34.9136C78.7835 33.8571 77.9994 33.7287 76.7408 33.8176C74.2785 34.0002 73.824 36.755 73.8939 37.6733C74.0038 39.105 75.3323 39.6085 76.1564 39.5444Z" fill="white"/>
</g>
<defs>
<clipPath id="clip0_3_74">
<rect width="82" height="61" fill="white"/>
</clipPath>
</defs>
</svg>
